<svg width="16" height="17" viewBox="0 0 16 17" fill="none" xmlns="http://www.w3.org/2000/svg">
<path d="M9.46585 8.09615L15.6959 1.86588C16.1014 1.46062 16.1014 0.805385 15.6959 0.400131C15.2907 -0.00512191 14.6354 -0.00512191 14.2302 0.400131L7.99991 6.6304L1.76983 0.400131C1.36438 -0.00512191 0.709336 -0.00512191 0.304082 0.400131C-0.101361 0.805385 -0.101361 1.46062 0.304082 1.86588L6.53416 8.09615L0.304082 14.3264C-0.101361 14.7317 -0.101361 15.3869 0.304082 15.7922C0.506045 15.9943 0.771595 16.0959 1.03696 16.0959C1.30232 16.0959 1.56768 15.9943 1.76983 15.7922L7.99991 9.56189L14.2302 15.7922C14.4323 15.9943 14.6977 16.0959 14.9631 16.0959C15.2284 16.0959 15.4938 15.9943 15.6959 15.7922C16.1014 15.3869 16.1014 14.7317 15.6959 14.3264L9.46585 8.09615Z" fill="#102C24"/>
</svg>
