<svg width="17" height="16" viewBox="0 0 17 16" fill="none" xmlns="http://www.w3.org/2000/svg">
<g clip-path="url(#clip0_30_977)">
<path d="M4.09985 10H3.43319C3.07956 10 2.74043 9.85956 2.49038 9.60952C2.24033 9.35947 2.09985 9.02033 2.09985 8.66671V2.66671C2.09985 2.31309 2.24033 1.97395 2.49038 1.7239C2.74043 1.47385 3.07956 1.33337 3.43319 1.33337H9.43319C9.78681 1.33337 10.1259 1.47385 10.376 1.7239C10.626 1.97395 10.7665 2.31309 10.7665 2.66671V3.33337M8.09985 6.00004H14.0999C14.8362 6.00004 15.4332 6.59699 15.4332 7.33337V13.3334C15.4332 14.0698 14.8362 14.6667 14.0999 14.6667H8.09985C7.36347 14.6667 6.76652 14.0698 6.76652 13.3334V7.33337C6.76652 6.59699 7.36347 6.00004 8.09985 6.00004Z" stroke="#008C50" stroke-width="2" stroke-linecap="round" stroke-linejoin="round"/>
</g>
<defs>
<clipPath id="clip0_30_977">
<rect width="16" height="16" fill="white" transform="translate(0.766602)"/>
</clipPath>
</defs>
</svg>
